<svg xmlns="http://www.w3.org/2000/svg" viewBox="0 0 425.5 126.16"><defs><style>.cls-1{fill:#6b6b6b;}.cls-2{fill:#3f3f3f;}</style></defs><g id="Layer_2" data-name="Layer 2"><g id="Logo_4" data-name="Logo 4"><path class="cls-1" d="M20.57,50.69h.6V47.43c0-7.4-3.56-11.54-9.33-11.54A10,10,0,0,0,2,42.62c-.52,0-.89-.22-.82-.74a7.74,7.74,0,0,1,1.63-3.11,11,11,0,0,1,9-4c6.74,0,10.66,4.58,10.66,12.72V69.78A.7.7,0,0,1,22,70c-.52,0-.74-.29-.74-1.48v-8C19.83,66,15.62,70.37,9.69,70.37,4.22,70.37,0,67.12,0,61.12,0,54,5.77,50.69,20.57,50.69Zm.6,1h-.52c-14.06.08-19.32,3-19.32,9.48,0,5.25,3.78,8.06,8.44,8.06,6.14,0,11.4-5.55,11.4-13.32Z"/><path class="cls-1" d="M162.21,34.7A10.54,10.54,0,0,1,171.09,39a9.08,9.08,0,0,1,2.07,4.59.71.71,0,0,1-.89.74c-.89-3.85-4.07-8.43-10.06-8.43-7.48,0-12.21,7.17-12.21,16.57,0,9.7,4.81,16.73,12.21,16.73,6.06,0,9.17-4.66,10.06-8.59a.77.77,0,0,1,.89.82,9.61,9.61,0,0,1-2.22,4.81,10.45,10.45,0,0,1-8.81,4.14c-8.36,0-13.54-7.77-13.54-17.83S153.84,34.7,162.21,34.7Z"/><path class="cls-1" d="M192.22,36.55a.62.62,0,0,1-.44.67A5.09,5.09,0,0,0,188.45,36c-4.89,0-7.7,5.78-7.7,16V69.26c0,.45-.22.74-.52.74H180c-.37,0-.59-.29-.59-.74v-34c0-.07.22-.14.52-.14.51,0,.74.44.74,1.62v8.07c1-6.88,3.92-10.14,7.84-10.14C190.22,34.7,192.22,35.59,192.22,36.55Z"/><path class="cls-1" d="M206.84,34.78c7.62,0,12.29,6.51,12.29,15.91v.14c0,.52-.3.82-.89.82H195.08v1.18c0,9.92,4.51,16.36,12.13,16.36,6.44,0,9.25-4.59,10.21-8.36a.81.81,0,0,1,.89.88,10,10,0,0,1-2.07,4.44,10.53,10.53,0,0,1-8.88,4.22c-8.51,0-13.69-6.88-13.69-17.61S199.07,34.78,206.84,34.78Zm.08,1.11c-6.52,0-11.11,5.62-11.84,14.57h22.71C217.79,42,213.65,35.89,206.92,35.89Z"/><path class="cls-1" d="M244,50.69h.59V47.43c0-7.4-3.55-11.54-9.33-11.54a10,10,0,0,0-9.84,6.73c-.52,0-.89-.22-.81-.74a7.6,7.6,0,0,1,1.63-3.11,11,11,0,0,1,9-4c6.74,0,10.66,4.58,10.66,12.72V69.78a.68.68,0,0,1-.52.22c-.52,0-.74-.29-.74-1.48v-8c-1.4,5.48-5.62,9.84-11.54,9.84-5.48,0-9.7-3.25-9.7-9.25C223.42,54,229.2,50.69,244,50.69Zm.59,1h-.52c-14.06.08-19.31,3-19.31,9.48,0,5.25,3.77,8.06,8.43,8.06,6.14,0,11.4-5.55,11.4-13.32Z"/><path class="cls-1" d="M254.69,62.16V36.4H250c-.52,0-.67-.22-.67-.51v-.15c0-.3.15-.52.67-.52h4.66V27.15c0-.52.22-.74.59-.74h.15c.37,0,.59.22.59.74v8.07h9.47c.45,0,.67.22.67.52v.15c0,.29-.22.51-.67.51H256V62.23c0,5.18,2.37,7,5.11,7,2.44,0,4.21-1.48,5.33-3.63a.69.69,0,0,1,.51.74,3.73,3.73,0,0,1-1.48,2.37,6.37,6.37,0,0,1-4.36,1.7C257.8,70.37,254.69,68.37,254.69,62.16Z"/><path class="cls-1" d="M282.25,34.78c7.63,0,12.29,6.51,12.29,15.91v.14c0,.52-.3.82-.89.82H270.49v1.18c0,9.92,4.51,16.36,12.13,16.36,6.44,0,9.25-4.59,10.22-8.36a.81.81,0,0,1,.88.88,10,10,0,0,1-2.07,4.44,10.53,10.53,0,0,1-8.88,4.22c-8.51,0-13.69-6.88-13.69-17.61S274.48,34.78,282.25,34.78Zm.08,1.11c-6.52,0-11.1,5.62-11.84,14.57h22.72C293.21,42,289.06,35.89,282.33,35.89Z"/><path class="cls-1" d="M299.32,52.31c0-10,5.55-17.61,13-17.61,6.07,0,10.07,4.66,11.47,10.14V20.2c0-.08.22-.23.52-.23.59,0,.81.37.81,1.48V69.26c0,.52-.22.74-.44.74h-.3c-.29,0-.51-.22-.51-.74V60.38c-1.19,5.33-5.11,10-11.55,10C304.57,70.37,299.32,62.9,299.32,52.31Zm24.57-4.81c-1.63-6.8-5.55-11.61-11.4-11.61-6.59,0-11.77,7-11.77,16.35,0,10.07,4.89,16.95,11.77,16.95s11.32-6.44,11.32-13.92Z"/><path class="cls-1" d="M348.6,62.16V36.4h-4.66c-.52,0-.67-.22-.67-.51v-.15c0-.3.15-.52.67-.52h4.66V27.15c0-.52.22-.74.59-.74h.15c.37,0,.59.22.59.74v8.07h9.47c.45,0,.67.22.67.52v.15c0,.29-.22.51-.67.51h-9.47V62.23c0,5.18,2.37,7,5.11,7a6,6,0,0,0,5.33-3.63.69.69,0,0,1,.51.74,3.73,3.73,0,0,1-1.48,2.37,6.37,6.37,0,0,1-4.36,1.7C351.71,70.37,348.6,68.37,348.6,62.16Z"/><path class="cls-1" d="M388.61,49.21V69.26c0,.52-.22.74-.52.74h-.29c-.3,0-.52-.22-.52-.74v-20c0-9-3.4-13.39-9.4-13.39-5.77,0-10.28,5-10.73,11.76V69.26c0,.45-.22.74-.52.74h-.22c-.37,0-.59-.29-.59-.74V20.2c0-.08.22-.23.52-.23.59,0,.81.37.81,1.48V43.66c1.41-5.41,5.63-8.88,10.88-8.88C384.84,34.78,388.61,39.66,388.61,49.21Z"/><path class="cls-1" d="M397.88,24.49c.81,0,1.18.44,1.18,1.26A1.13,1.13,0,0,1,397.8,27c-.81,0-1.18-.44-1.18-1.25A1.1,1.1,0,0,1,397.88,24.49Zm-.74,11.32c0-.52.29-.66.59-.66H398c.3,0,.52.14.52.66V69.26c0,.52-.22.74-.52.74h-.22c-.3,0-.59-.22-.59-.74Z"/><path class="cls-1" d="M404.26,64.6c0-.59.44-.89.59-.81,1.33,2.88,5,5.4,10,5.4,5.92,0,9.33-3.55,9.33-8.22,0-5.33-4.22-6.73-9-8.06-4.52-1.34-9.84-3-9.84-9,0-5.48,4.44-9.18,10.21-9.18a11.11,11.11,0,0,1,8.14,3.18,4,4,0,0,1,1,1.85c0,.6-.52.89-.6.82-1.18-2.3-4.14-4.66-8.58-4.66-5.11,0-9,3.25-9,8,0,5.1,4.59,6.51,9,7.77,5,1.48,9.92,3,9.92,9.18,0,5.47-3.92,9.54-10.73,9.54a12.52,12.52,0,0,1-9-3.33A4.71,4.71,0,0,1,404.26,64.6Z"/><path class="cls-2" d="M39.41,126.16c-8.43,0-12.17-6.7-12.17-14.84,0-10.94,6.62-24.55,17.28-28.87.72.14,1,.28,1,.43s-.15.21-.22.29c-8.93,3.67-15.91,18.14-15.91,29,0,7,3,12.6,10.37,12.6,13.46,0,15.62-20.45,15.62-32.77,0-8.42,0-16.85-.07-26.64-1.22,3.46-3.82,6.34-7.06,6.34-6,0-8.49-5.47-8.49-12.24,0-10.8,6.48-24.77,15.48-24.77,5,0,7.27,3.17,7.27,6.91a12,12,0,0,1-9.07,11.3,1.64,1.64,0,0,1-.58.08c-.43,0-.65-.15-.65-.36s.44-.58,1.08-.72c4.61-.87,7.71-6,7.71-10.23,0-3.24-1.8-6-6.27-6-6.69,0-11.16,13.25-11.16,23.41,0,6.26,1.73,11.37,5.69,11.37,3.53,0,6.27-7.56,6.77-10.73a34.16,34.16,0,0,0,.65-5.4c0-.79,3-1.94,4.61-2.16.21,0,.36.08.36.29,0,.43-.51.58-.72,1.08A12.2,12.2,0,0,0,59.5,58.4c0,9.07-.51,18.21-.51,28.8C59,96.27,58.92,126.16,39.41,126.16Z"/><path class="cls-2" d="M88.44,57.1c-1.15,4-5.11,16.27-11.09,16.27-5.33,0-6.91-5.47-6.91-12.31V58.9c-1.52,6.19-5.55,13.75-11.24,13.75-.79,0-1.36-.36-1.36-.72s.28-.43.86-.43a6.23,6.23,0,0,0,3.67-.93c4.32-2.88,7.71-12,8.64-17.86.8-5.19,1.73-10.23,2.52-13.83,1.66-.36,3.89-1.29,4.32-1.29.15,0,.29.07.51.36-1.15,1.94-3.82,16.13-3.82,25.63,0,4.9.72,8.57,2.74,8.57,4.53,0,8.85-10.58,10.22-15.41l.87-3,.93.36ZM75.19,27.58a3.13,3.13,0,0,1,2.74-2.95,2.25,2.25,0,0,1,1.94,2.23,2.83,2.83,0,0,1-2.81,2.66A2,2,0,0,1,75.19,27.58Z"/><path class="cls-2" d="M113.35,57.1c-2,7.06-4.75,16.78-9.94,16.78-5.54,0-7.77-6-7.77-13.47,0-7,2-15.26,5.25-20.66a10.6,10.6,0,0,1-4.53.86,17.62,17.62,0,0,1-4.18-.43c-.22,3.53-1.87,10.37-2.88,13.9l-.86,3-.94-.36.86-3A70.58,70.58,0,0,0,91.24,40c-4.17-1.22-5.76-4-5.76-6.26,0-2,1.16-3.6,3-3.6,3.16,0,3.67,6.19,3.74,8.93a19.78,19.78,0,0,0,4.75.64c2.81,0,4.18-1.08,5.33-1.29.36.14.51,1,.51,1.08,0,2.16-3.24,15.7-3.24,24.84,0,4.9.93,8.5,3.74,8.5,4.75,0,8.06-12.1,9.14-16.06l.87-3,.93.36ZM91.24,38.74c-.14-2.09-.72-7.49-2.59-7.49C87.36,31.25,87,32.76,87,34,87,36.36,88.94,37.88,91.24,38.74Z"/><path class="cls-2" d="M117.52,42.12c-.36,3.89-.5,7.64-.5,11.09,0,10.08,1.58,17.64,5.62,17.86,4.1,0,6.55-8.14,8.35-14.33l.86-3,.94.36-.86,3c-2.09,7.27-4.25,15-9.94,15-6.27,0-8.86-9.22-8.86-21.1,0-21.24,8.21-51,17.79-51,2.3,0,3.53,3.24,3.53,8.06C134.45,17.79,129.41,33.84,117.52,42.12Zm.15-1.44c10.87-7.2,15.62-23.61,15.62-32.76,0-3.89-.86-6.41-2.44-6.41C125.08,1.51,119.61,22,117.67,40.68Z"/></g></g></svg>