<?xml version="1.0" encoding="utf-8"?>
<!-- Generator: Adobe Illustrator 24.3.0, SVG Export Plug-In . SVG Version: 6.00 Build 0)  -->
<svg version="1.1" id="Layer_1" xmlns="http://www.w3.org/2000/svg" xmlns:xlink="http://www.w3.org/1999/xlink" x="0px" y="0px"
	 viewBox="0 0 100 100" style="enable-background:new 0 0 100 100;" xml:space="preserve">
<style type="text/css">
	.st0{fill:#3F3F3F;}
</style>
<path class="st0" d="M41.3,96.6c-8.4,0-12.2-6.7-12.2-14.8c0-10.9,6.6-24.6,17.3-28.9c0.7,0.1,1,0.3,1,0.4s-0.2,0.2-0.2,0.3
	c-8.9,3.7-15.9,18.1-15.9,29c0,7,3,12.6,10.4,12.6c13.5,0,15.6-20.4,15.6-32.8c0-8.4,0-16.8-0.1-26.6c-1.2,3.5-3.8,6.3-7.1,6.3
	c-6,0-8.5-5.5-8.5-12.2c0-10.8,6.5-24.8,15.5-24.8c5,0,7.3,3.2,7.3,6.9c-0.2,5.4-3.9,10-9.1,11.3c-0.2,0.1-0.4,0.1-0.6,0.1
	c-0.4,0-0.7-0.2-0.7-0.4s0.4-0.6,1.1-0.7c4.6-0.9,7.7-6,7.7-10.2c0-3.2-1.8-6-6.3-6c-6.7,0-11.2,13.2-11.2,23.4
	c0,6.3,1.7,11.4,5.7,11.4c3.5,0,6.3-7.6,6.8-10.7c0.4-1.8,0.6-3.6,0.7-5.4c0-0.8,3-1.9,4.6-2.2c0.2,0,0.4,0.1,0.4,0.3
	c0,0.4-0.5,0.6-0.7,1.1c-0.8,1.5-1.3,3.2-1.4,4.9c0,9.1-0.5,18.2-0.5,28.8C60.9,66.7,60.8,96.6,41.3,96.6z"/>
</svg>
