<?xml version="1.0" encoding="utf-8"?>
<!-- Generator: Adobe Illustrator 24.1.3, SVG Export Plug-In . SVG Version: 6.00 Build 0)  -->
<svg version="1.1" id="Layer_1" xmlns="http://www.w3.org/2000/svg" xmlns:xlink="http://www.w3.org/1999/xlink" x="0px" y="0px"
	 viewBox="0 0 425.5 126.2" style="enable-background:new 0 0 425.5 126.2;" xml:space="preserve">
<style type="text/css">
	.st0{fill:#FFFFFF;}
</style>
<g id="Layer_2_1_">
	<g id="Logo_4">
		<path class="st0" d="M20.6,50.7h0.6v-3.3c0-7.4-3.6-11.5-9.3-11.5c-4.4-0.2-8.4,2.6-9.8,6.7c-0.5,0-0.9-0.2-0.8-0.7
			c0.3-1.1,0.9-2.2,1.6-3.1c2.2-2.7,5.5-4.2,9-4c6.7,0,10.7,4.6,10.7,12.7v22.3C22.3,69.9,22.2,70,22,70c-0.5,0-0.7-0.3-0.7-1.5v-8
			c-1.4,5.5-5.6,9.9-11.6,9.9c-5.5,0-9.7-3.2-9.7-9.3C0,54,5.8,50.7,20.6,50.7z M21.2,51.7h-0.5c-14.1,0.1-19.3,3-19.3,9.5
			c0,5.2,3.8,8.1,8.4,8.1c6.1,0,11.4-5.5,11.4-13.3L21.2,51.7z"/>
		<path class="st0" d="M162.2,34.7c3.5-0.1,6.8,1.5,8.9,4.3c1.1,1.3,1.8,2.9,2.1,4.6c0,0.4-0.3,0.7-0.7,0.8c-0.1,0-0.2,0-0.2,0
			c-0.9-3.8-4.1-8.4-10.1-8.4c-7.5,0-12.2,7.2-12.2,16.6c0,9.7,4.8,16.7,12.2,16.7c6.1,0,9.2-4.7,10.1-8.6c0.4-0.1,0.8,0.2,0.9,0.6
			c0,0.1,0,0.1,0,0.2c-0.3,1.8-1,3.4-2.2,4.8c-2.1,2.7-5.4,4.3-8.8,4.1c-8.4,0-13.5-7.8-13.5-17.8S153.8,34.7,162.2,34.7z"/>
		<path class="st0" d="M192.2,36.5c0,0.3-0.1,0.6-0.4,0.7c-0.9-0.8-2.1-1.2-3.3-1.2c-4.9,0-7.7,5.8-7.7,16v17.3
			c0,0.4-0.2,0.7-0.5,0.7H180c-0.4,0-0.6-0.3-0.6-0.7v-34c0-0.1,0.2-0.1,0.5-0.1c0.5,0,0.7,0.4,0.7,1.6v8.1c1-6.9,3.9-10.1,7.8-10.1
			C190.2,34.7,192.2,35.6,192.2,36.5z"/>
		<path class="st0" d="M206.8,34.8c7.6,0,12.3,6.5,12.3,15.9v0.1c0,0.5-0.3,0.8-0.9,0.8h-23.2v1.2c0,9.9,4.5,16.4,12.1,16.4
			c6.4,0,9.2-4.6,10.2-8.4c0.4,0,0.8,0.3,0.9,0.7c0,0.1,0,0.1,0,0.2c-0.3,1.6-1,3.2-2.1,4.4c-2.1,2.8-5.4,4.4-8.9,4.2
			c-8.5,0-13.7-6.9-13.7-17.6S199.1,34.8,206.8,34.8z M206.9,35.9c-6.5,0-11.1,5.6-11.8,14.6h22.7C217.8,42,213.6,35.9,206.9,35.9z"
			/>
		<path class="st0" d="M244,50.7h0.6v-3.3c0-7.4-3.6-11.5-9.3-11.5c-4.4-0.2-8.4,2.6-9.8,6.7c-0.5,0-0.9-0.2-0.8-0.7
			c0.3-1.1,0.9-2.2,1.6-3.1c2.2-2.7,5.5-4.2,9-4c6.7,0,10.7,4.6,10.7,12.7v22.3c-0.1,0.1-0.3,0.2-0.5,0.2c-0.5,0-0.7-0.3-0.7-1.5v-8
			c-1.4,5.5-5.6,9.8-11.5,9.8c-5.5,0-9.7-3.2-9.7-9.2C223.4,54,229.2,50.7,244,50.7z M244.6,51.7h-0.5c-14.1,0.1-19.3,3-19.3,9.5
			c0,5.2,3.8,8.1,8.4,8.1c6.1,0,11.4-5.5,11.4-13.3V51.7z"/>
		<path class="st0" d="M254.7,62.2V36.4H250c-0.5,0-0.7-0.2-0.7-0.5v-0.2c0-0.3,0.1-0.5,0.7-0.5h4.7v-8.1c0-0.5,0.2-0.7,0.6-0.7h0.1
			c0.4,0,0.6,0.2,0.6,0.7v8.1h9.5c0.5,0,0.7,0.2,0.7,0.5v0.2c0,0.3-0.2,0.5-0.7,0.5H256v25.8c0,5.2,2.4,7,5.1,7
			c2.4,0,4.2-1.5,5.3-3.6c0.3,0.1,0.5,0.4,0.5,0.7c-0.2,1-0.7,1.8-1.5,2.4c-1.2,1.1-2.7,1.7-4.4,1.7
			C257.8,70.4,254.7,68.4,254.7,62.2z"/>
		<path class="st0" d="M282.2,34.8c7.6,0,12.3,6.5,12.3,15.9v0.1c0,0.5-0.3,0.8-0.9,0.8h-23.2v1.2c0,9.9,4.5,16.4,12.1,16.4
			c6.4,0,9.2-4.6,10.2-8.4c0.4,0,0.8,0.3,0.9,0.7c0,0,0,0.1,0,0.1c-0.3,1.6-1,3.2-2.1,4.4c-2.1,2.8-5.4,4.4-8.9,4.2
			c-8.5,0-13.7-6.9-13.7-17.6S274.5,34.8,282.2,34.8z M282.3,35.9c-6.5,0-11.1,5.6-11.8,14.6h22.7C293.2,42,289.1,35.9,282.3,35.9z"
			/>
		<path class="st0" d="M299.3,52.3c0-10,5.5-17.6,13-17.6c6.1,0,10.1,4.7,11.5,10.1V20.2c0-0.1,0.2-0.2,0.5-0.2
			c0.6,0,0.8,0.4,0.8,1.5v47.8c0,0.5-0.2,0.7-0.4,0.7h-0.3c-0.3,0-0.5-0.2-0.5-0.7v-8.9c-1.2,5.3-5.1,10-11.5,10
			C304.6,70.4,299.3,62.9,299.3,52.3z M323.9,47.5c-1.6-6.8-5.5-11.6-11.4-11.6c-6.6,0-11.8,7-11.8,16.3c0,10.1,4.9,17,11.8,17
			s11.3-6.4,11.3-13.9L323.9,47.5z"/>
		<path class="st0" d="M348.6,62.2V36.4h-4.7c-0.5,0-0.7-0.2-0.7-0.5v-0.2c0-0.3,0.1-0.5,0.7-0.5h4.7v-8.1c0-0.5,0.2-0.7,0.6-0.7
			h0.1c0.4,0,0.6,0.2,0.6,0.7v8.1h9.5c0.5,0,0.7,0.2,0.7,0.5v0.2c0,0.3-0.2,0.5-0.7,0.5h-9.5v25.8c0,5.2,2.4,7,5.1,7
			c2.3-0.1,4.4-1.5,5.3-3.6c0.3,0.1,0.5,0.4,0.5,0.7c-0.2,1-0.7,1.8-1.5,2.4c-1.2,1.1-2.7,1.7-4.4,1.7
			C351.7,70.4,348.6,68.4,348.6,62.2z"/>
		<path class="st0" d="M388.6,49.2v20.1c0,0.5-0.2,0.7-0.5,0.7h-0.3c-0.3,0-0.5-0.2-0.5-0.7v-20c0-9-3.4-13.4-9.4-13.4
			c-5.8,0-10.3,5-10.7,11.8v21.6c0,0.4-0.2,0.7-0.5,0.7h-0.2c-0.4,0-0.6-0.3-0.6-0.7V20.2c0-0.1,0.2-0.2,0.5-0.2
			c0.6,0,0.8,0.4,0.8,1.5v22.2c1.4-5.4,5.6-8.9,10.9-8.9C384.8,34.8,388.6,39.7,388.6,49.2z"/>
		<path class="st0" d="M397.9,24.5c0.8,0,1.2,0.4,1.2,1.3c0.1,0.6-0.4,1.2-1,1.3c-0.1,0-0.2,0-0.3,0c-0.8,0-1.2-0.4-1.2-1.2
			c-0.1-0.6,0.3-1.2,0.9-1.3C397.6,24.5,397.8,24.5,397.9,24.5z M397.1,35.8c0-0.5,0.3-0.7,0.6-0.7h0.3c0.3,0,0.5,0.1,0.5,0.7v33.5
			c0,0.5-0.2,0.7-0.5,0.7h-0.2c-0.3,0-0.6-0.2-0.6-0.7L397.1,35.8z"/>
		<path class="st0" d="M404.3,64.6c0-0.6,0.4-0.9,0.6-0.8c1.3,2.9,5,5.4,10,5.4c5.9,0,9.3-3.6,9.3-8.2c0-5.3-4.2-6.7-9-8.1
			c-4.5-1.3-9.8-3-9.8-9c0-5.5,4.4-9.2,10.2-9.2c3-0.1,6,1.1,8.1,3.2c0.5,0.5,0.8,1.2,1,1.8c0,0.6-0.5,0.9-0.6,0.8
			c-1.2-2.3-4.1-4.7-8.6-4.7c-5.1,0-9,3.2-9,8c0,5.1,4.6,6.5,9,7.8c5,1.5,9.9,3,9.9,9.2c0,5.5-3.9,9.5-10.7,9.5
			c-3.3,0.1-6.6-1.1-9-3.3C405,66.4,404.5,65.6,404.3,64.6z"/>
		<path class="st0" d="M39.4,126.2c-8.4,0-12.2-6.7-12.2-14.8c0-10.9,6.6-24.6,17.3-28.9c0.7,0.1,1,0.3,1,0.4s-0.2,0.2-0.2,0.3
			c-8.9,3.7-15.9,18.1-15.9,29c0,7,3,12.6,10.4,12.6c13.5,0,15.6-20.4,15.6-32.8c0-8.4,0-16.8-0.1-26.6c-1.2,3.5-3.8,6.3-7.1,6.3
			c-6,0-8.5-5.5-8.5-12.2c0-10.8,6.5-24.8,15.5-24.8c5,0,7.3,3.2,7.3,6.9c-0.2,5.4-3.9,10-9.1,11.3C53.3,53,53.1,53,52.9,53
			c-0.4,0-0.7-0.2-0.7-0.4s0.4-0.6,1.1-0.7c4.6-0.9,7.7-6,7.7-10.2c0-3.2-1.8-6-6.3-6c-6.7,0-11.2,13.2-11.2,23.4
			c0,6.3,1.7,11.4,5.7,11.4c3.5,0,6.3-7.6,6.8-10.7c0.4-1.8,0.6-3.6,0.7-5.4c0-0.8,3-1.9,4.6-2.2c0.2,0,0.4,0.1,0.4,0.3
			c0,0.4-0.5,0.6-0.7,1.1c-0.8,1.5-1.3,3.2-1.4,4.9c0,9.1-0.5,18.2-0.5,28.8C59,96.3,58.9,126.2,39.4,126.2z"/>
		<path class="st0" d="M88.4,57.1c-1.2,4-5.1,16.3-11.1,16.3c-5.3,0-6.9-5.5-6.9-12.3v-2.2c-1.5,6.2-5.6,13.8-11.2,13.8
			c-0.8,0-1.4-0.4-1.4-0.7s0.3-0.4,0.9-0.4c1.3,0.1,2.6-0.2,3.7-0.9c4.3-2.9,7.7-12,8.6-17.9c0.8-5.2,1.7-10.2,2.5-13.8
			c1.7-0.4,3.9-1.3,4.3-1.3c0.2,0,0.3,0.1,0.5,0.4c-1.2,1.9-3.8,16.1-3.8,25.6c0,4.9,0.7,8.6,2.7,8.6c4.5,0,8.8-10.6,10.2-15.4
			l0.9-3l0.9,0.4L88.4,57.1z M75.2,27.6c0.1-1.5,1.2-2.8,2.7-3c1.1,0.2,1.9,1.1,1.9,2.2c-0.1,1.5-1.3,2.7-2.8,2.7
			C76,29.5,75.2,28.6,75.2,27.6z"/>
		<path class="st0" d="M113.3,57.1c-2,7.1-4.8,16.8-9.9,16.8c-5.5,0-7.8-6-7.8-13.5c0-7,2-15.3,5.2-20.7c-1.4,0.6-3,0.9-4.5,0.9
			c-1.4,0-2.8-0.1-4.2-0.4c-0.2,3.5-1.9,10.4-2.9,13.9l-0.9,3l-0.9-0.4l0.9-3c1.4-4.5,2.4-9.1,2.9-13.7c-4.2-1.2-5.8-4-5.8-6.3
			c0-2,1.2-3.6,3-3.6c3.2,0,3.7,6.2,3.7,8.9c1.6,0.4,3.1,0.6,4.8,0.6c2.8,0,4.2-1.1,5.3-1.3c0.4,0.1,0.5,1,0.5,1.1
			c0,2.2-3.2,15.7-3.2,24.8c0,4.9,0.9,8.5,3.7,8.5c4.8,0,8.1-12.1,9.1-16.1l0.9-3l0.9,0.4L113.3,57.1z M91.2,38.7
			c-0.1-2.1-0.7-7.5-2.6-7.5c-1.3,0-1.7,1.5-1.7,2.7C87,36.4,88.9,37.9,91.2,38.7z"/>
		<path class="st0" d="M117.5,42.1c-0.4,3.9-0.5,7.6-0.5,11.1c0,10.1,1.6,17.6,5.6,17.9c4.1,0,6.6-8.1,8.4-14.3l0.9-3l0.9,0.4
			l-0.9,3c-2.1,7.3-4.2,15-9.9,15c-6.3,0-8.9-9.2-8.9-21.1c0-21.2,8.2-51,17.8-51c2.3,0,3.5,3.2,3.5,8.1
			C134.4,17.8,129.4,33.8,117.5,42.1z M117.7,40.7c10.9-7.2,15.6-23.6,15.6-32.8c0-3.9-0.9-6.4-2.4-6.4
			C125.1,1.5,119.6,22,117.7,40.7z"/>
	</g>
</g>
</svg>
